{"asset":{"generator":"Khronos glTF Blender I/O v4.5.48","version":"2.0"},"scene":0,"scenes":[{"name":"Scene","nodes":[0]}],"nodes":[{"mesh":0,"name":"Mesh_0"}],"materials":[{"alphaMode":"MASK","alphaCutoff":0.5,"doubleSided":true,"pbrMetallicRoughness":{"baseColorFactor":[0.5879999995231628,0.5879999995231628,0.5879999995231628,1],"baseColorTexture":{"index":0},"metallicRoughnessTexture":{"index":2}},"normalTexture":{"index":1}},{"pbrMetallicRoughness":{"baseColorFactor":[0.5879999995231628,0.5879999995231628,0.5879999995231628,1],"baseColorTexture":{"index":3},"metallicRoughnessTexture":{"index":5}},"normalTexture":{"index":4}},{"pbrMetallicRoughness":{"baseColorFactor":[0.5879999995231628,0.5879999995231628,0.5879999995231628,1],"metallicFactor":0,"baseColorTexture":{"index":6}}},{"alphaMode":"MASK","alphaCutoff":0.5,"doubleSided":true,"pbrMetallicRoughness":{"baseColorFactor":[0.5879999995231628,0.5879999995231628,0.5879999995231628,1],"baseColorTexture":{"index":7},"metallicRoughnessTexture":{"index":9}},"normalTexture":{"index":8}},{"pbrMetallicRoughness":{"baseColorFactor":[0.5879999995231628,0.5879999995231628,0.5879999995231628,1],"baseColorTexture":{"index":10},"metallicRoughnessTexture":{"index":12}},"normalTexture":{"index":11}},{"pbrMetallicRoughness":{"baseColorFactor":[0.5879999995231628,0.5879999995231628,0.5879999995231628,1],"baseColorTexture":{"index":13},"metallicRoughnessTexture":{"index":15}},"normalTexture":{"index":14}},{"pbrMetallicRoughness":{"baseColorFactor":[0.5879999995231628,0.5879999995231628,0.5879999995231628,1],"baseColorTexture":{"index":16},"metallicRoughnessTexture":{"index":18}},"normalTexture":{"index":17}},{"pbrMetallicRoughness":{"baseColorFactor":[0.5879999995231628,0.5879999995231628,0.5879999995231628,1],"baseColorTexture":{"index":19},"metallicRoughnessTexture":{"index":21}},"normalTexture":{"index":20}},{"pbrMetallicRoughness":{"baseColorFactor":[0.5879999995231628,0.5879999995231628,0.5879999995231628,1],"baseColorTexture":{"index":22},"metallicRoughnessTexture":{"index":24}},"normalTexture":{"index":23}},{"pbrMetallicRoughness":{"baseColorFactor":[0.5879999995231628,0.5879999995231628,0.5879999995231628,1],"baseColorTexture":{"index":25},"metallicRoughnessTexture":{"index":27}},"normalTexture":{"index":26}},{"pbrMetallicRoughness":{"baseColorFactor":[0.5879999995231628,0.5879999995231628,0.5879999995231628,1],"baseColorTexture":{"index":28},"metallicRoughnessTexture":{"index":30}},"normalTexture":{"index":29}},{"pbrMetallicRoughness":{"baseColorFactor":[0.5879999995231628,0.5879999995231628,0.5879999995231628,1],"baseColorTexture":{"index":31},"metallicRoughnessTexture":{"index":33}},"normalTexture":{"index":32}},{"pbrMetallicRoughness":{"baseColorFactor":[0.5879999995231628,0.5879999995231628,0.5879999995231628,1],"baseColorTexture":{"index":34},"metallicRoughnessTexture":{"index":36}},"normalTexture":{"index":35}},{"pbrMetallicRoughness":{"baseColorFactor":[0.5879999995231628,0.5879999995231628,0.5879999995231628,1],"baseColorTexture":{"index":37},"metallicRoughnessTexture":{"index":39}},"normalTexture":{"index":38}},{"pbrMetallicRoughness":{"baseColorFactor":[0.5879999995231628,0.5879999995231628,0.5879999995231628,1],"baseColorTexture":{"index":40},"metallicRoughnessTexture":{"index":42}},"normalTexture":{"index":41}},{"pbrMetallicRoughness":{"baseColorFactor":[0.5879999995231628,0.5879999995231628,0.5879999995231628,1],"baseColorTexture":{"index":43},"metallicRoughnessTexture":{"index":42}},"normalTexture":{"index":44}},{"pbrMetallicRoughness":{"baseColorFactor":[0.5879999995231628,0.5879999995231628,0.5879999995231628,1],"baseColorTexture":{"index":45},"metallicRoughnessTexture":{"index":42}},"normalTexture":{"index":46}},{"pbrMetallicRoughness":{"baseColorFactor":[0.5879999995231628,0.5879999995231628,0.5879999995231628,1],"baseColorTexture":{"index":47},"metallicRoughnessTexture":{"index":49}},"normalTexture":{"index":48}},{"pbrMetallicRoughness":{"baseColorFactor":[0.5879999995231628,0.5879999995231628,0.5879999995231628,1],"baseColorTexture":{"index":50},"metallicRoughnessTexture":{"index":49}},"normalTexture":{"index":51}},{"pbrMetallicRoughness":{"baseColorFactor":[0.5879999995231628,0.5879999995231628,0.5879999995231628,1],"baseColorTexture":{"index":52},"metallicRoughnessTexture":{"index":49}},"normalTexture":{"index":53}},{"alphaMode":"MASK","alphaCutoff":0.5,"doubleSided":true,"pbrMetallicRoughness":{"baseColorFactor":[0.5879999995231628,0.5879999995231628,0.5879999995231628,1],"baseColorTexture":{"index":54},"metallicRoughnessTexture":{"index":56}},"normalTexture":{"index":55}},{"pbrMetallicRoughness":{"baseColorFactor":[0.5879999995231628,0.5879999995231628,0.5879999995231628,1],"baseColorTexture":{"index":57},"metallicRoughnessTexture":{"index":59}},"normalTexture":{"index":58}},{"pbrMetallicRoughness":{"baseColorFactor":[0.5879999995231628,0.5879999995231628,0.5879999995231628,1],"baseColorTexture":{"index":60},"metallicRoughnessTexture":{"index":62}},"normalTexture":{"index":61}},{"pbrMetallicRoughness":{"baseColorFactor":[0.5879999995231628,0.5879999995231628,0.5879999995231628,1],"baseColorTexture":{"index":63},"metallicRoughnessTexture":{"index":65}},"normalTexture":{"index":64}},{"pbrMetallicRoughness":{"baseColorFactor":[0.5879999995231628,0.5879999995231628,0.5879999995231628,1],"baseColorTexture":{"index":66},"metallicRoughnessTexture":{"index":68}},"normalTexture":{"index":67}}],"meshes":[{"name":"Mesh_0","primitives":[{"attributes":{"POSITION":0,"NORMAL":1,"TEXCOORD_0":2,"TEXCOORD_1":3,"TANGENT":4},"indices":5,"material":0},{"attributes":{"POSITION":6,"NORMAL":7,"TEXCOORD_0":8,"TEXCOORD_1":9,"TANGENT":10},"indices":11,"material":3},{"attributes":{"POSITION":12,"NORMAL":13,"TEXCOORD_0":14,"TEXCOORD_1":15,"TANGENT":16},"indices":17,"material":1},{"attributes":{"POSITION":18,"NORMAL":19,"TEXCOORD_0":20,"TEXCOORD_1":21,"TANGENT":22},"indices":23,"material":4},{"attributes":{"POSITION":24,"NORMAL":25,"TEXCOORD_0":26,"TEXCOORD_1":27,"TANGENT":28},"indices":29,"material":5},{"attributes":{"POSITION":30,"NORMAL":31,"TEXCOORD_0":32,"TEXCOORD_1":33,"TANGENT":34},"indices":35,"material":6},{"attributes":{"POSITION":36,"NORMAL":37,"TEXCOORD_0":38,"TEXCOORD_1":39,"TANGENT":40},"indices":41,"material":7},{"attributes":{"POSITION":42,"NORMAL":43,"TEXCOORD_0":44,"TEXCOORD_1":45,"TANGENT":46},"indices":47,"material":8},{"attributes":{"POSITION":48,"NORMAL":49,"TEXCOORD_0":50,"TEXCOORD_1":51,"TANGENT":52},"indices":53,"material":9},{"attributes":{"POSITION":54,"NORMAL":55,"TEXCOORD_0":56,"TEXCOORD_1":57,"TANGENT":58},"indices":59,"material":10},{"attributes":{"POSITION":60,"NORMAL":61,"TEXCOORD_0":62,"TEXCOORD_1":63,"TANGENT":64},"indices":65,"material":11},{"attributes":{"POSITION":66,"NORMAL":67,"TEXCOORD_0":68,"TEXCOORD_1":69,"TANGENT":70},"indices":71,"material":12},{"attributes":{"POSITION":72,"NORMAL":73,"TEXCOORD_0":74,"TEXCOORD_1":75,"TANGENT":76},"indices":77,"material":2},{"attributes":{"POSITION":78,"NORMAL":79,"TEXCOORD_0":80,"TEXCOORD_1":81,"TANGENT":82},"indices":83,"material":13},{"attributes":{"POSITION":84,"NORMAL":85,"TEXCOORD_0":86,"TEXCOORD_1":87,"TANGENT":88},"indices":89,"material":14},{"attributes":{"POSITION":90,"NORMAL":91,"TEXCOORD_0":92,"TEXCOORD_1":93,"TANGENT":94},"indices":95,"material":15},{"attributes":{"POSITION":96,"NORMAL":97,"TEXCOORD_0":98,"TEXCOORD_1":99,"TANGENT":100},"indices":101,"material":16},{"attributes":{"POSITION":102,"NORMAL":103,"TEXCOORD_0":104,"TEXCOORD_1":105,"TANGENT":106},"indices":107,"material":17},{"attributes":{"POSITION":108,"NORMAL":109,"TEXCOORD_0":110,"TEXCOORD_1":111,"TANGENT":112},"indices":113,"material":18},{"attributes":{"POSITION":114,"NORMAL":115,"TEXCOORD_0":116,"TEXCOORD_1":117,"TANGENT":118},"indices":119,"material":19},{"attributes":{"POSITION":120,"NORMAL":121,"TEXCOORD_0":122,"TEXCOORD_1":123,"TANGENT":124},"indices":125,"material":20},{"attributes":{"POSITION":126,"NORMAL":127,"TEXCOORD_0":128,"TEXCOORD_1":129,"TANGENT":130},"indices":131,"material":21},{"attributes":{"POSITION":132,"NORMAL":133,"TEXCOORD_0":134,"TEXCOORD_1":135,"TANGENT":136},"indices":137,"material":22},{"attributes":{"POSITION":138,"NORMAL":139,"TEXCOORD_0":140,"TEXCOORD_1":141,"TANGENT":142},"indices":143,"material":23},{"attributes":{"POSITION":144,"NORMAL":145,"TEXCOORD_0":146,"TEXCOORD_1":147,"TANGENT":148},"indices":149,"material":24}]}],"accessors":[{"bufferView":0,"componentType":5126,"count":32538,"max":[4.409811019897461,1.8008168935775757,2.1315383911132812],"min":[-5.442113876342773,-0.22439680993556976,-2.7290897369384766],"type":"VEC3"},{"bufferView":1,"componentType":5126,"count":32538,"type":"VEC3"},{"bufferView":2,"componentType":5126,"count":32538,"type":"VEC2"},{"bufferView":3,"componentType":5126,"count":32538,"type":"VEC2"},{"bufferView":4,"componentType":5126,"count":32538,"type":"VEC4"},{"bufferView":5,"componentType":5123,"count":94308,"type":"SCALAR"},{"bufferView":6,"componentType":5126,"count":4922,"max":[6.895086765289307,0.5849887728691101,1.5028128623962402],"min":[-7.943683624267578,0.3385528028011322,-2.0946919918060303],"type":"VEC3"},{"bufferView":7,"componentType":5126,"count":4922,"type":"VEC3"},{"bufferView":8,"componentType":5126,"count":4922,"type":"VEC2"},{"bufferView":9,"componentType":5126,"count":4922,"type":"VEC2"},{"bufferView":10,"componentType":5126,"count":4922,"type":"VEC4"},{"bufferView":11,"componentType":5123,"count":10416,"type":"SCALAR"},{"bufferView":12,"componentType":5126,"count":15954,"max":[6.874363899230957,0.44959601759910583,1.4344865083694458],"min":[-7.9259114265441895,-0.03224560245871544,-2.0131449699401855],"type":"VEC3"},{"bufferView":13,"componentType":5126,"count":15954,"type":"VEC3"},{"bufferView":14,"componentType":5126,"count":15954,"type":"VEC2"},{"bufferView":15,"componentType":5126,"count":15954,"type":"VEC2"},{"bufferView":16,"componentType":5126,"count":15954,"type":"VEC4"},{"bufferView":17,"componentType":5123,"count":53064,"type":"SCALAR"},{"bufferView":18,"componentType":5126,"count":5000,"max":[10.398935317993164,6.068425178527832,0.7090152502059937],"min":[-11.426199913024902,0.32654881477355957,-1.3070920705795288],"type":"VEC3"},{"bufferView":19,"componentType":5126,"count":5000,"type":"VEC3"},{"bufferView":20,"componentType":5126,"count":5000,"type":"VEC2"},{"bufferView":21,"componentType":5126,"count":5000,"type":"VEC2"},{"bufferView":22,"componentType":5126,"count":5000,"type":"VEC4"},{"bufferView":23,"componentType":5123,"count":12258,"type":"SCALAR"},{"bufferView":24,"componentType":5126,"count":1419,"max":[13.973543167114258,10.777566909790039,8.317689895629883],"min":[-14.935864448547363,-1.0115400552749634,-9.112244606018066],"type":"VEC3"},{"bufferView":25,"componentType":5126,"count":1419,"type":"VEC3"},{"bufferView":26,"componentType":5126,"count":1419,"type":"VEC2"},{"bufferView":27,"componentType":5126,"count":1419,"type":"VEC2"},{"bufferView":28,"componentType":5126,"count":1419,"type":"VEC4"},{"bufferView":29,"componentType":5123,"count":2388,"type":"SCALAR"},{"bufferView":30,"componentType":5126,"count":15195,"max":[7.375484466552734,10.200090408325195,1.9665136337280273],"min":[-8.423006057739258,1.6911640167236328,-2.5448479652404785],"type":"VEC3"},{"bufferView":31,"componentType":5126,"count":15195,"type":"VEC3"},{"bufferView":32,"componentType":5126,"count":15195,"type":"VEC2"},{"bufferView":33,"componentType":5126,"count":15195,"type":"VEC2"},{"bufferView":34,"componentType":5126,"count":15195,"type":"VEC4"},{"bufferView":35,"componentType":5123,"count":30504,"type":"SCALAR"},{"bufferView":36,"componentType":5126,"count":6909,"max":[10.417613983154297,10.111424446105957,4.599221706390381],"min":[-11.435619354248047,1.7264288663864136,-5.161186695098877],"type":"VEC3"},{"bufferView":37,"componentType":5126,"count":6909,"type":"VEC3"},{"bufferView":38,"componentType":5126,"count":6909,"type":"VEC2"},{"bufferView":39,"componentType":5126,"count":6909,"type":"VEC2"},{"bufferView":40,"componentType":5126,"count":6909,"type":"VEC4"},{"bufferView":41,"componentType":5123,"count":17628,"type":"SCALAR"},{"bufferView":42,"componentType":5126,"count":4227,"max":[7.4048309326171875,1.7679768800735474,1.972919225692749],"min":[-8.457761764526367,-0.01968560181558132,-2.5349538326263428],"type":"VEC3"},{"bufferView":43,"componentType":5126,"count":4227,"type":"VEC3"},{"bufferView":44,"componentType":5126,"count":4227,"type":"VEC2"},{"bufferView":45,"componentType":5126,"count":4227,"type":"VEC2"},{"bufferView":46,"componentType":5126,"count":4227,"type":"VEC4"},{"bufferView":47,"componentType":5123,"count":8448,"type":"SCALAR"},{"bufferView":48,"componentType":5126,"count":23,"max":[10.417768478393555,3.32424259185791,4.593481540679932],"min":[-11.457795143127441,-0.020049601793289185,-5.163448333740234],"type":"VEC3"},{"bufferView":49,"componentType":5126,"count":23,"type":"VEC3"},{"bufferView":50,"componentType":5126,"count":23,"type":"VEC2"},{"bufferView":51,"componentType":5126,"count":23,"type":"VEC2"},{"bufferView":52,"componentType":5126,"count":23,"type":"VEC4"},{"bufferView":53,"componentType":5123,"count":63,"type":"SCALAR"},{"bufferView":54,"componentType":5126,"count":15094,"max":[10.426176071166992,5.562582969665527,4.605804443359375],"min":[-11.442441940307617,1.4612184762954712,-5.175743579864502],"type":"VEC3"},{"bufferView":55,"componentType":5126,"count":15094,"type":"VEC3"},{"bufferView":56,"componentType":5126,"count":15094,"type":"VEC2"},{"bufferView":57,"componentType":5126,"count":15094,"type":"VEC2"},{"bufferView":58,"componentType":5126,"count":15094,"type":"VEC4"},{"bufferView":59,"componentType":5123,"count":21264,"type":"SCALAR"},{"bufferView":60,"componentType":5126,"count":1641,"max":[10.524195671081543,5.734805107116699,4.840109348297119],"min":[-4.0774664878845215,-0.01772400178015232,-5.212308406829834],"type":"VEC3"},{"bufferView":61,"componentType":5126,"count":1641,"type":"VEC3"},{"bufferView":62,"componentType":5126,"count":1641,"type":"VEC2"},{"bufferView":63,"componentType":5126,"count":1641,"type":"VEC2"},{"bufferView":64,"componentType":5126,"count":1641,"type":"VEC4"},{"bufferView":65,"componentType":5123,"count":2640,"type":"SCALAR"},{"bufferView":66,"componentType":5126,"count":30169,"max":[7.259255886077881,5.59689474105835,1.8781872987747192],"min":[-8.301213264465332,4.053065776824951,-2.477644205093384],"type":"VEC3"},{"bufferView":67,"componentType":5126,"count":30169,"type":"VEC3"},{"bufferView":68,"componentType":5126,"count":30169,"type":"VEC2"},{"bufferView":69,"componentType":5126,"count":30169,"type":"VEC2"},{"bufferView":70,"componentType":5126,"count":30169,"type":"VEC4"},{"bufferView":71,"componentType":5123,"count":69624,"type":"SCALAR"},{"bufferView":72,"componentType":5126,"count":42,"max":[-0.06610320508480072,2.785579204559326,4.604041576385498],"min":[-0.9552584886550903,2.0538480281829834,4.549267292022705],"type":"VEC3"},{"bufferView":73,"componentType":5126,"count":42,"type":"VEC3"},{"bufferView":74,"componentType":5126,"count":42,"type":"VEC2"},{"bufferView":75,"componentType":5126,"count":42,"type":"VEC2"},{"bufferView":76,"componentType":5126,"count":42,"type":"VEC4"},{"bufferView":77,"componentType":5123,"count":54,"type":"SCALAR"},{"bufferView":78,"componentType":5126,"count":16016,"max":[6.6423516273498535,7.089112281799316,1.6729201078414917],"min":[-7.669582843780518,2.199676752090454,-2.317629098892212],"type":"VEC3"},{"bufferView":79,"componentType":5126,"count":16016,"type":"VEC3"},{"bufferView":80,"componentType":5126,"count":16016,"type":"VEC2"},{"bufferView":81,"componentType":5126,"count":16016,"type":"VEC2"},{"bufferView":82,"componentType":5126,"count":16016,"type":"VEC4"},{"bufferView":83,"componentType":5123,"count":49488,"type":"SCALAR"},{"bufferView":84,"componentType":5126,"count":12591,"max":[5.215649604797363,4.164751052856445,2.0182864665985107],"min":[-6.2703537940979,2.7155439853668213,-2.596209764480591],"type":"VEC3"},{"bufferView":85,"componentType":5126,"count":12591,"type":"VEC3"},{"bufferView":86,"componentType":5126,"count":12591,"type":"VEC2"},{"bufferView":87,"componentType":5126,"count":12591,"type":"VEC2"},{"bufferView":88,"componentType":5126,"count":12591,"type":"VEC4"},{"bufferView":89,"componentType":5123,"count":49536,"type":"SCALAR"},{"bufferView":90,"componentType":5126,"count":12605,"max":[5.1908135414123535,4.164751052856445,2.0182857513427734],"min":[-6.29518985748291,2.7155439853668213,-2.596209764480591],"type":"VEC3"},{"bufferView":91,"componentType":5126,"count":12605,"type":"VEC3"},{"bufferView":92,"componentType":5126,"count":12605,"type":"VEC2"},{"bufferView":93,"componentType":5126,"count":12605,"type":"VEC2"},{"bufferView":94,"componentType":5126,"count":12605,"type":"VEC4"},{"bufferView":95,"componentType":5123,"count":49536,"type":"SCALAR"},{"bufferView":96,"componentType":5126,"count":8390,"max":[2.266801595687866,4.164751052856445,2.018284797668457],"min":[-3.3463408946990967,2.7155439853668213,-2.596209764480591],"type":"VEC3"},{"bufferView":97,"componentType":5126,"count":8390,"type":"VEC3"},{"bufferView":98,"componentType":5126,"count":8390,"type":"VEC2"},{"bufferView":99,"componentType":5126,"count":8390,"type":"VEC2"},{"bufferView":100,"componentType":5126,"count":8390,"type":"VEC4"},{"bufferView":101,"componentType":5123,"count":33024,"type":"SCALAR"},{"bufferView":102,"componentType":5126,"count":9391,"max":[6.561392307281494,2.2694480419158936,1.7078601121902466],"min":[-4.620961666107178,-0.0024712001904845238,-2.3620352745056152],"type":"VEC3"},{"bufferView":103,"componentType":5126,"count":9391,"type":"VEC3"},{"bufferView":104,"componentType":5126,"count":9391,"type":"VEC2"},{"bufferView":105,"componentType":5126,"count":9391,"type":"VEC2"},{"bufferView":106,"componentType":5126,"count":9391,"type":"VEC4"},{"bufferView":107,"componentType":5123,"count":43008,"type":"SCALAR"},{"bufferView":108,"componentType":5126,"count":12482,"max":[6.561392307281494,2.2694480419158936,1.7078601121902466],"min":[-7.56990385055542,-0.0024712001904845238,-2.3620352745056152],"type":"VEC3"},{"bufferView":109,"componentType":5126,"count":12482,"type":"VEC3"},{"bufferView":110,"componentType":5126,"count":12482,"type":"VEC2"},{"bufferView":111,"componentType":5126,"count":12482,"type":"VEC2"},{"bufferView":112,"componentType":5126,"count":12482,"type":"VEC4"},{"bufferView":113,"componentType":5123,"count":56832,"type":"SCALAR"},{"bufferView":114,"componentType":5126,"count":9391,"max":[3.584270715713501,2.2694480419158936,1.7078601121902466],"min":[-7.56990385055542,-0.0024712001904845238,-2.3140552043914795],"type":"VEC3"},{"bufferView":115,"componentType":5126,"count":9391,"type":"VEC3"},{"bufferView":116,"componentType":5126,"count":9391,"type":"VEC2"},{"bufferView":117,"componentType":5126,"count":9391,"type":"VEC2"},{"bufferView":118,"componentType":5126,"count":9391,"type":"VEC4"},{"bufferView":119,"componentType":5123,"count":43008,"type":"SCALAR"},{"bufferView":120,"componentType":5126,"count":82,"max":[4.106886386871338,1.7148393392562866,1.1610273122787476],"min":[-5.159465312957764,1.0697704553604126,-1.7718976736068726],"type":"VEC3"},{"bufferView":121,"componentType":5126,"count":82,"type":"VEC3"},{"bufferView":122,"componentType":5126,"count":82,"type":"VEC2"},{"bufferView":123,"componentType":5126,"count":82,"type":"VEC2"},{"bufferView":124,"componentType":5126,"count":82,"type":"VEC4"},{"bufferView":125,"componentType":5123,"count":96,"type":"SCALAR"},{"bufferView":126,"componentType":5126,"count":17740,"max":[4.1808929443359375,1.7356104850769043,1.3638064861297607],"min":[-5.233470439910889,0.7893832325935364,-1.9746761322021484],"type":"VEC3"},{"bufferView":127,"componentType":5126,"count":17740,"type":"VEC3"},{"bufferView":128,"componentType":5126,"count":17740,"type":"VEC2"},{"bufferView":129,"componentType":5126,"count":17740,"type":"VEC2"},{"bufferView":130,"componentType":5126,"count":17740,"type":"VEC4"},{"bufferView":131,"componentType":5123,"count":59484,"type":"SCALAR"},{"bufferView":132,"componentType":5126,"count":8356,"max":[9.553364753723145,1.0641344785690308,3.826094627380371],"min":[-10.213387489318848,-0.005547200329601765,-4.187996864318848],"type":"VEC3"},{"bufferView":133,"componentType":5126,"count":8356,"type":"VEC3"},{"bufferView":134,"componentType":5126,"count":8356,"type":"VEC2"},{"bufferView":135,"componentType":5126,"count":8356,"type":"VEC2"},{"bufferView":136,"componentType":5126,"count":8356,"type":"VEC4"},{"bufferView":137,"componentType":5123,"count":27552,"type":"SCALAR"},{"bufferView":138,"componentType":5126,"count":3763,"max":[10.392210960388184,2.1180896759033203,0.3428272306919098],"min":[-11.419475555419922,0.6392384171485901,-0.9175320267677307],"type":"VEC3"},{"bufferView":139,"componentType":5126,"count":3763,"type":"VEC3"},{"bufferView":140,"componentType":5126,"count":3763,"type":"VEC2"},{"bufferView":141,"componentType":5126,"count":3763,"type":"VEC2"},{"bufferView":142,"componentType":5126,"count":3763,"type":"VEC4"},{"bufferView":143,"componentType":5123,"count":9126,"type":"SCALAR"},{"bufferView":144,"componentType":5126,"count":19547,"max":[14.39926528930664,11.435466766357422,8.843408584594727],"min":[-15.367568016052246,10.244108200073242,-9.462457656860352],"type":"VEC3"},{"bufferView":145,"componentType":5126,"count":19547,"type":"VEC3"},{"bufferView":146,"componentType":5126,"count":19547,"type":"VEC2"},{"bufferView":147,"componentType":5126,"count":19547,"type":"VEC2"},{"bufferView":148,"componentType":5126,"count":19547,"type":"VEC4"},{"bufferView":149,"componentType":5123,"count":43452,"type":"SCALAR"}],"bufferViews":[{"buffer":0,"byteLength":390456,"byteOffset":0,"target":34962},{"buffer":0,"byteLength":390456,"byteOffset":390456,"target":34962},{"buffer":0,"byteLength":260304,"byteOffset":780912,"target":34962},{"buffer":0,"byteLength":260304,"byteOffset":1041216,"target":34962},{"buffer":0,"byteLength":520608,"byteOffset":1301520,"target":34962},{"buffer":0,"byteLength":188616,"byteOffset":1822128,"target":34963},{"buffer":0,"byteLength":59064,"byteOffset":2010744,"target":34962},{"buffer":0,"byteLength":59064,"byteOffset":2069808,"target":34962},{"buffer":0,"byteLength":39376,"byteOffset":2128872,"target":34962},{"buffer":0,"byteLength":39376,"byteOffset":2168248,"target":34962},{"buffer":0,"byteLength":78752,"byteOffset":2207624,"target":34962},{"buffer":0,"byteLength":20832,"byteOffset":2286376,"target":34963},{"buffer":0,"byteLength":191448,"byteOffset":2307208,"target":34962},{"buffer":0,"byteLength":191448,"byteOffset":2498656,"target":34962},{"buffer":0,"byteLength":127632,"byteOffset":2690104,"target":34962},{"buffer":0,"byteLength":127632,"byteOffset":2817736,"target":34962},{"buffer":0,"byteLength":255264,"byteOffset":2945368,"target":34962},{"buffer":0,"byteLength":106128,"byteOffset":3200632,"target":34963},{"buffer":0,"byteLength":60000,"byteOffset":3306760,"target":34962},{"buffer":0,"byteLength":60000,"byteOffset":3366760,"target":34962},{"buffer":0,"byteLength":40000,"byteOffset":3426760,"target":34962},{"buffer":0,"byteLength":40000,"byteOffset":3466760,"target":34962},{"buffer":0,"byteLength":80000,"byteOffset":3506760,"target":34962},{"buffer":0,"byteLength":24516,"byteOffset":3586760,"target":34963},{"buffer":0,"byteLength":17028,"byteOffset":3611276,"target":34962},{"buffer":0,"byteLength":17028,"byteOffset":3628304,"target":34962},{"buffer":0,"byteLength":11352,"byteOffset":3645332,"target":34962},{"buffer":0,"byteLength":11352,"byteOffset":3656684,"target":34962},{"buffer":0,"byteLength":22704,"byteOffset":3668036,"target":34962},{"buffer":0,"byteLength":4776,"byteOffset":3690740,"target":34963},{"buffer":0,"byteLength":182340,"byteOffset":3695516,"target":34962},{"buffer":0,"byteLength":182340,"byteOffset":3877856,"target":34962},{"buffer":0,"byteLength":121560,"byteOffset":4060196,"target":34962},{"buffer":0,"byteLength":121560,"byteOffset":4181756,"target":34962},{"buffer":0,"byteLength":243120,"byteOffset":4303316,"target":34962},{"buffer":0,"byteLength":61008,"byteOffset":4546436,"target":34963},{"buffer":0,"byteLength":82908,"byteOffset":4607444,"target":34962},{"buffer":0,"byteLength":82908,"byteOffset":4690352,"target":34962},{"buffer":0,"byteLength":55272,"byteOffset":4773260,"target":34962},{"buffer":0,"byteLength":55272,"byteOffset":4828532,"target":34962},{"buffer":0,"byteLength":110544,"byteOffset":4883804,"target":34962},{"buffer":0,"byteLength":35256,"byteOffset":4994348,"target":34963},{"buffer":0,"byteLength":50724,"byteOffset":5029604,"target":34962},{"buffer":0,"byteLength":50724,"byteOffset":5080328,"target":34962},{"buffer":0,"byteLength":33816,"byteOffset":5131052,"target":34962},{"buffer":0,"byteLength":33816,"byteOffset":5164868,"target":34962},{"buffer":0,"byteLength":67632,"byteOffset":5198684,"target":34962},{"buffer":0,"byteLength":16896,"byteOffset":5266316,"target":34963},{"buffer":0,"byteLength":276,"byteOffset":5283212,"target":34962},{"buffer":0,"byteLength":276,"byteOffset":5283488,"target":34962},{"buffer":0,"byteLength":184,"byteOffset":5283764,"target":34962},{"buffer":0,"byteLength":184,"byteOffset":5283948,"target":34962},{"buffer":0,"byteLength":368,"byteOffset":5284132,"target":34962},{"buffer":0,"byteLength":126,"byteOffset":5284500,"target":34963},{"buffer":0,"byteLength":181128,"byteOffset":5284628,"target":34962},{"buffer":0,"byteLength":181128,"byteOffset":5465756,"target":34962},{"buffer":0,"byteLength":120752,"byteOffset":5646884,"target":34962},{"buffer":0,"byteLength":120752,"byteOffset":5767636,"target":34962},{"buffer":0,"byteLength":241504,"byteOffset":5888388,"target":34962},{"buffer":0,"byteLength":42528,"byteOffset":6129892,"target":34963},{"buffer":0,"byteLength":19692,"byteOffset":6172420,"target":34962},{"buffer":0,"byteLength":19692,"byteOffset":6192112,"target":34962},{"buffer":0,"byteLength":13128,"byteOffset":6211804,"target":34962},{"buffer":0,"byteLength":13128,"byteOffset":6224932,"target":34962},{"buffer":0,"byteLength":26256,"byteOffset":6238060,"target":34962},{"buffer":0,"byteLength":5280,"byteOffset":6264316,"target":34963},{"buffer":0,"byteLength":362028,"byteOffset":6269596,"target":34962},{"buffer":0,"byteLength":362028,"byteOffset":6631624,"target":34962},{"buffer":0,"byteLength":241352,"byteOffset":6993652,"target":34962},{"buffer":0,"byteLength":241352,"byteOffset":7235004,"target":34962},{"buffer":0,"byteLength":482704,"byteOffset":7476356,"target":34962},{"buffer":0,"byteLength":139248,"byteOffset":7959060,"target":34963},{"buffer":0,"byteLength":504,"byteOffset":8098308,"target":34962},{"buffer":0,"byteLength":504,"byteOffset":8098812,"target":34962},{"buffer":0,"byteLength":336,"byteOffset":8099316,"target":34962},{"buffer":0,"byteLength":336,"byteOffset":8099652,"target":34962},{"buffer":0,"byteLength":672,"byteOffset":8099988,"target":34962},{"buffer":0,"byteLength":108,"byteOffset":8100660,"target":34963},{"buffer":0,"byteLength":192192,"byteOffset":8100768,"target":34962},{"buffer":0,"byteLength":192192,"byteOffset":8292960,"target":34962},{"buffer":0,"byteLength":128128,"byteOffset":8485152,"target":34962},{"buffer":0,"byteLength":128128,"byteOffset":8613280,"target":34962},{"buffer":0,"byteLength":256256,"byteOffset":8741408,"target":34962},{"buffer":0,"byteLength":98976,"byteOffset":8997664,"target":34963},{"buffer":0,"byteLength":151092,"byteOffset":9096640,"target":34962},{"buffer":0,"byteLength":151092,"byteOffset":9247732,"target":34962},{"buffer":0,"byteLength":100728,"byteOffset":9398824,"target":34962},{"buffer":0,"byteLength":100728,"byteOffset":9499552,"target":34962},{"buffer":0,"byteLength":201456,"byteOffset":9600280,"target":34962},{"buffer":0,"byteLength":99072,"byteOffset":9801736,"target":34963},{"buffer":0,"byteLength":151260,"byteOffset":9900808,"target":34962},{"buffer":0,"byteLength":151260,"byteOffset":10052068,"target":34962},{"buffer":0,"byteLength":100840,"byteOffset":10203328,"target":34962},{"buffer":0,"byteLength":100840,"byteOffset":10304168,"target":34962},{"buffer":0,"byteLength":201680,"byteOffset":10405008,"target":34962},{"buffer":0,"byteLength":99072,"byteOffset":10606688,"target":34963},{"buffer":0,"byteLength":100680,"byteOffset":10705760,"target":34962},{"buffer":0,"byteLength":100680,"byteOffset":10806440,"target":34962},{"buffer":0,"byteLength":67120,"byteOffset":10907120,"target":34962},{"buffer":0,"byteLength":67120,"byteOffset":10974240,"target":34962},{"buffer":0,"byteLength":134240,"byteOffset":11041360,"target":34962},{"buffer":0,"byteLength":66048,"byteOffset":11175600,"target":34963},{"buffer":0,"byteLength":112692,"byteOffset":11241648,"target":34962},{"buffer":0,"byteLength":112692,"byteOffset":11354340,"target":34962},{"buffer":0,"byteLength":75128,"byteOffset":11467032,"target":34962},{"buffer":0,"byteLength":75128,"byteOffset":11542160,"target":34962},{"buffer":0,"byteLength":150256,"byteOffset":11617288,"target":34962},{"buffer":0,"byteLength":86016,"byteOffset":11767544,"target":34963},{"buffer":0,"byteLength":149784,"byteOffset":11853560,"target":34962},{"buffer":0,"byteLength":149784,"byteOffset":12003344,"target":34962},{"buffer":0,"byteLength":99856,"byteOffset":12153128,"target":34962},{"buffer":0,"byteLength":99856,"byteOffset":12252984,"target":34962},{"buffer":0,"byteLength":199712,"byteOffset":12352840,"target":34962},{"buffer":0,"byteLength":113664,"byteOffset":12552552,"target":34963},{"buffer":0,"byteLength":112692,"byteOffset":12666216,"target":34962},{"buffer":0,"byteLength":112692,"byteOffset":12778908,"target":34962},{"buffer":0,"byteLength":75128,"byteOffset":12891600,"target":34962},{"buffer":0,"byteLength":75128,"byteOffset":12966728,"target":34962},{"buffer":0,"byteLength":150256,"byteOffset":13041856,"target":34962},{"buffer":0,"byteLength":86016,"byteOffset":13192112,"target":34963},{"buffer":0,"byteLength":984,"byteOffset":13278128,"target":34962},{"buffer":0,"byteLength":984,"byteOffset":13279112,"target":34962},{"buffer":0,"byteLength":656,"byteOffset":13280096,"target":34962},{"buffer":0,"byteLength":656,"byteOffset":13280752,"target":34962},{"buffer":0,"byteLength":1312,"byteOffset":13281408,"target":34962},{"buffer":0,"byteLength":192,"byteOffset":13282720,"target":34963},{"buffer":0,"byteLength":212880,"byteOffset":13282912,"target":34962},{"buffer":0,"byteLength":212880,"byteOffset":13495792,"target":34962},{"buffer":0,"byteLength":141920,"byteOffset":13708672,"target":34962},{"buffer":0,"byteLength":141920,"byteOffset":13850592,"target":34962},{"buffer":0,"byteLength":283840,"byteOffset":13992512,"target":34962},{"buffer":0,"byteLength":118968,"byteOffset":14276352,"target":34963},{"buffer":0,"byteLength":100272,"byteOffset":14395320,"target":34962},{"buffer":0,"byteLength":100272,"byteOffset":14495592,"target":34962},{"buffer":0,"byteLength":66848,"byteOffset":14595864,"target":34962},{"buffer":0,"byteLength":66848,"byteOffset":14662712,"target":34962},{"buffer":0,"byteLength":133696,"byteOffset":14729560,"target":34962},{"buffer":0,"byteLength":55104,"byteOffset":14863256,"target":34963},{"buffer":0,"byteLength":45156,"byteOffset":14918360,"target":34962},{"buffer":0,"byteLength":45156,"byteOffset":14963516,"target":34962},{"buffer":0,"byteLength":30104,"byteOffset":15008672,"target":34962},{"buffer":0,"byteLength":30104,"byteOffset":15038776,"target":34962},{"buffer":0,"byteLength":60208,"byteOffset":15068880,"target":34962},{"buffer":0,"byteLength":18252,"byteOffset":15129088,"target":34963},{"buffer":0,"byteLength":234564,"byteOffset":15147340,"target":34962},{"buffer":0,"byteLength":234564,"byteOffset":15381904,"target":34962},{"buffer":0,"byteLength":156376,"byteOffset":15616468,"target":34962},{"buffer":0,"byteLength":156376,"byteOffset":15772844,"target":34962},{"buffer":0,"byteLength":312752,"byteOffset":15929220,"target":34962},{"buffer":0,"byteLength":86904,"byteOffset":16241972,"target":34963}],"buffers":[{"byteLength":16328876,"uri":"Sponza.bin"}],"textures":[{"source":1,"sampler":0},{"source":0,"sampler":0},{"source":2,"sampler":0},{"source":7,"sampler":0},{"source":6,"sampler":0},{"source":8,"sampler":0},{"source":68,"sampler":0},{"source":4,"sampler":0},{"source":3,"sampler":0},{"source":5,"sampler":0},{"source":10,"sampler":0},{"source":9,"sampler":0},{"source":11,"sampler":0},{"source":13,"sampler":0},{"source":12,"sampler":0},{"source":14,"sampler":0},{"source":16,"sampler":0},{"source":15,"sampler":0},{"source":17,"sampler":0},{"source":19,"sampler":0},{"source":18,"sampler":0},{"source":20,"sampler":0},{"source":22,"sampler":0},{"source":21,"sampler":0},{"source":23,"sampler":0},{"source":25,"sampler":0},{"source":24,"sampler":0},{"source":26,"sampler":0},{"source":28,"sampler":0},{"source":27,"sampler":0},{"source":29,"sampler":0},{"source":31,"sampler":0},{"source":30,"sampler":0},{"source":32,"sampler":0},{"source":34,"sampler":0},{"source":33,"sampler":0},{"source":35,"sampler":0},{"source":37,"sampler":0},{"source":36,"sampler":0},{"source":38,"sampler":0},{"source":40,"sampler":0},{"source":39,"sampler":0},{"source":41,"sampler":0},{"source":43,"sampler":0},{"source":42,"sampler":0},{"source":45,"sampler":0},{"source":44,"sampler":0},{"source":47,"sampler":0},{"source":46,"sampler":0},{"source":48,"sampler":0},{"source":50,"sampler":0},{"source":49,"sampler":0},{"source":52,"sampler":0},{"source":51,"sampler":0},{"source":54,"sampler":0},{"source":53,"sampler":0},{"source":55,"sampler":0},{"source":57,"sampler":0},{"source":56,"sampler":0},{"source":58,"sampler":0},{"source":60,"sampler":0},{"source":59,"sampler":0},{"source":61,"sampler":0},{"source":63,"sampler":0},{"source":62,"sampler":0},{"source":64,"sampler":0},{"source":66,"sampler":0},{"source":65,"sampler":0},{"source":67,"sampler":0}],"images":[{"mimeType":"image/jpeg","uri":"../8773302468495022225.jpg"},{"mimeType":"image/png","uri":"../5061699253647017043.png"},{"mimeType":"image/jpeg","uri":"../11872827283454512094.jpg"},{"mimeType":"image/jpeg","uri":"../12501374198249454378.jpg"},{"mimeType":"image/png","uri":"../8006627369776289000.png"},{"mimeType":"image/jpeg","uri":"../715093869573992647.jpg"},{"mimeType":"image/jpeg","uri":"../4477655471536070370.jpg"},{"mimeType":"image/jpeg","uri":"../7268504077753552595.jpg"},{"mimeType":"image/jpeg","uri":"../8503262930880235456.jpg"},{"mimeType":"image/jpeg","uri":"../13982482287905699490.jpg"},{"mimeType":"image/jpeg","uri":"../8750083169368950601.jpg"},{"mimeType":"image/jpeg","uri":"../16885566240357350108.jpg"},{"mimeType":"image/jpeg","uri":"../16299174074766089871.jpg"},{"mimeType":"image/jpeg","uri":"../5792855332885324923.jpg"},{"mimeType":"image/jpeg","uri":"../11968150294050148237.jpg"},{"mimeType":"image/jpeg","uri":"../2051777328469649772.jpg"},{"mimeType":"image/jpeg","uri":"../14650633544276105767.jpg"},{"mimeType":"image/jpeg","uri":"../4871783166746854860.jpg"},{"mimeType":"image/jpeg","uri":"../10388182081421875623.jpg"},{"mimeType":"image/jpeg","uri":"../15295713303328085182.jpg"},{"mimeType":"image/jpeg","uri":"../9916269861720640319.jpg"},{"mimeType":"image/jpeg","uri":"../15722799267630235092.jpg"},{"mimeType":"image/jpeg","uri":"../6047387724914829168.jpg"},{"mimeType":"image/jpeg","uri":"../8051790464816141987.jpg"},{"mimeType":"image/jpeg","uri":"../14267839433702832875.jpg"},{"mimeType":"image/jpeg","uri":"../5823059166183034438.jpg"},{"mimeType":"image/jpeg","uri":"../13824894030729245199.jpg"},{"mimeType":"image/jpeg","uri":"../6667038893015345571.jpg"},{"mimeType":"image/jpeg","uri":"../7441062115984513793.jpg"},{"mimeType":"image/jpeg","uri":"../8114461559286000061.jpg"},{"mimeType":"image/jpeg","uri":"../3628158980083700836.jpg"},{"mimeType":"image/jpeg","uri":"../11490520546946913238.jpg"},{"mimeType":"image/jpeg","uri":"../3455394979645218238.jpg"},{"mimeType":"image/jpeg","uri":"../7645212358685992005.jpg"},{"mimeType":"image/jpeg","uri":"../6151467286084645207.jpg"},{"mimeType":"image/jpeg","uri":"../8783994986360286082.jpg"},{"mimeType":"image/jpeg","uri":"../2299742237651021498.jpg"},{"mimeType":"image/jpeg","uri":"../4975155472559461469.jpg"},{"mimeType":"image/jpeg","uri":"../3371964815757888145.jpg"},{"mimeType":"image/jpeg","uri":"../7056944414013900257.jpg"},{"mimeType":"image/jpeg","uri":"../4675343432951571524.jpg"},{"mimeType":"image/jpeg","uri":"../7815564343179553343.jpg"},{"mimeType":"image/jpeg","uri":"../2374361008830720677.jpg"},{"mimeType":"image/jpeg","uri":"../2775690330959970771.jpg"},{"mimeType":"image/jpeg","uri":"../332936164838540657.jpg"},{"mimeType":"image/jpeg","uri":"../2185409758123873465.jpg"},{"mimeType":"image/jpeg","uri":"../6593109234861095314.jpg"},{"mimeType":"image/jpeg","uri":"../17876391417123941155.jpg"},{"mimeType":"image/jpeg","uri":"../466164707995436622.jpg"},{"mimeType":"image/jpeg","uri":"../4601176305987539675.jpg"},{"mimeType":"image/jpeg","uri":"../11474523244911310074.jpg"},{"mimeType":"image/jpeg","uri":"../4910669866631290573.jpg"},{"mimeType":"image/jpeg","uri":"../9288698199695299068.jpg"},{"mimeType":"image/jpeg","uri":"../14170708867020035030.jpg"},{"mimeType":"image/png","uri":"../16275776544635328252.png"},{"mimeType":"image/jpeg","uri":"../1219024358953944284.jpg"},{"mimeType":"image/jpeg","uri":"../3827035219084910048.jpg"},{"mimeType":"image/jpeg","uri":"../755318871556304029.jpg"},{"mimeType":"image/jpeg","uri":"../2411100444841994089.jpg"},{"mimeType":"image/jpeg","uri":"../10381718147657362067.jpg"},{"mimeType":"image/jpeg","uri":"../8481240838833932244.jpg"},{"mimeType":"image/jpeg","uri":"../17556969131407844942.jpg"},{"mimeType":"image/jpeg","uri":"../759203620573749278.jpg"},{"mimeType":"image/jpeg","uri":"../6772804448157695701.jpg"},{"mimeType":"image/jpeg","uri":"../13196865903111448057.jpg"},{"mimeType":"image/jpeg","uri":"../14118779221266351425.jpg"},{"mimeType":"image/jpeg","uri":"../2969916736137545357.jpg"},{"mimeType":"image/jpeg","uri":"../8747919177698443163.jpg"},{"mimeType":"image/png","uri":"../white.png"}],"samplers":[{"magFilter":9729,"minFilter":9987,"wrapS":10497,"wrapT":10497}]}
