{"asset":{"generator":"Khronos glTF Blender I/O v4.5.48","version":"2.0"},"scene":0,"scenes":[{"name":"Scene","nodes":[0]}],"nodes":[{"mesh":0,"name":"Floor slab | finished floor datum Z=0"}],"materials":[{"name":"Concrete | slab edge","pbrMetallicRoughness":{"baseColorFactor":[0.7454043626785278,0.7529423236846924,0.7156936526298523,1],"metallicFactor":0,"roughnessFactor":0.49803921580314636}},{"name":"Bare floor | neutral screed","pbrMetallicRoughness":{"baseColorTexture":{"index":11},"baseColorFactor":[1,1,1,1],"metallicFactor":0,"roughnessFactor":1,"metallicRoughnessTexture":{"index":13}},"normalTexture":{"index":12,"scale":0.15}},{"name":"Wet area | neutral porcelain","pbrMetallicRoughness":{"baseColorTexture":{"index":11},"baseColorFactor":[1,1,1,1],"metallicFactor":0,"roughnessFactor":1,"metallicRoughnessTexture":{"index":13}},"normalTexture":{"index":12,"scale":0.15}},{"name":"Shelter | neutral floor","pbrMetallicRoughness":{"baseColorFactor":[0.7454043626785278,0.7529423236846924,0.7156936526298523,1],"metallicFactor":0,"roughnessFactor":0.49803921580314636}},{"name":"Paint | warm white","pbrMetallicRoughness":{"baseColorFactor":[0.9046613574028015,0.8962693810462952,0.8631572723388672,1],"metallicFactor":0,"roughnessFactor":1,"metallicRoughnessTexture":{"index":10}},"normalTexture":{"index":9,"scale":0.35}},{"name":"Aluminium | charcoal","pbrMetallicRoughness":{"baseColorFactor":[0.07036009569659588,0.09305896284668745,0.10461648409110419,1],"metallicFactor":0.8799999952316284,"roughnessFactor":0.28999999165534973}},{"alphaMode":"BLEND","doubleSided":true,"name":"Tinted glazing | schematic","pbrMetallicRoughness":{"baseColorFactor":[0.45078578283822346,0.6375968739940326,0.6307571363461468,0.24],"metallicFactor":0,"roughnessFactor":0.07999999821186066}},{"alphaMode":"BLEND","doubleSided":true,"name":"Bathroom glazing | frosted schematic","pbrMetallicRoughness":{"baseColorFactor":[0.5520114015120001,0.6724431569576875,0.6444796819705821,0.72],"metallicFactor":0,"roughnessFactor":0.6600000262260437}},{"name":"Internal door | light neutral laminate","pbrMetallicRoughness":{"baseColorTexture":{"index":14},"baseColorFactor":[1,1,1,1],"metallicFactor":0,"roughnessFactor":1,"metallicRoughnessTexture":{"index":16}},"normalTexture":{"index":15,"scale":0.18}},{"name":"Shelter door | painted metal","pbrMetallicRoughness":{"baseColorFactor":[0.7156935005064807,0.7304607400903537,0.6866853124353135,1],"metallicFactor":0,"roughnessFactor":0.6000000238418579}},{"name":"Entrance | timber laminate","pbrMetallicRoughness":{"baseColorTexture":{"index":14},"baseColorFactor":[0.9,0.85,0.8,1],"metallicFactor":0,"roughnessFactor":1,"metallicRoughnessTexture":{"index":16}},"normalTexture":{"index":15,"scale":0.18}},{"name":"External ledges | concrete","pbrMetallicRoughness":{"baseColorFactor":[0.7454043626785278,0.7529423236846924,0.7156936526298523,1],"metallicFactor":0,"roughnessFactor":0.49803921580314636}}],"meshes":[{"name":"Floor slab | finished floor datum Z=0","primitives":[{"attributes":{"POSITION":0,"NORMAL":1,"TEXCOORD_0":84,"TEXCOORD_1":3,"TEXCOORD_2":4},"indices":6,"material":0},{"attributes":{"POSITION":7,"NORMAL":8,"TEXCOORD_0":85,"TEXCOORD_1":10,"TEXCOORD_2":11},"indices":13,"material":1},{"attributes":{"POSITION":14,"NORMAL":15,"TEXCOORD_0":86,"TEXCOORD_1":17,"TEXCOORD_2":18},"indices":20,"material":2},{"attributes":{"POSITION":21,"NORMAL":22,"TEXCOORD_0":87,"TEXCOORD_1":24,"TEXCOORD_2":25},"indices":27,"material":3},{"attributes":{"POSITION":28,"NORMAL":29,"TEXCOORD_0":88,"TEXCOORD_1":31,"TEXCOORD_2":32},"indices":34,"material":4},{"attributes":{"POSITION":35,"NORMAL":36,"TEXCOORD_0":37,"TEXCOORD_1":38,"TEXCOORD_2":39,"TANGENT":40},"indices":41,"material":5},{"attributes":{"POSITION":42,"NORMAL":43,"TEXCOORD_0":44,"TEXCOORD_1":45,"TEXCOORD_2":46,"TANGENT":47},"indices":48,"material":6},{"attributes":{"POSITION":49,"NORMAL":50,"TEXCOORD_0":51,"TEXCOORD_1":52,"TEXCOORD_2":53,"TANGENT":54},"indices":55,"material":7},{"attributes":{"POSITION":56,"NORMAL":57,"TEXCOORD_0":89,"TEXCOORD_1":59,"TEXCOORD_2":60},"indices":62,"material":8},{"attributes":{"POSITION":63,"NORMAL":64,"TEXCOORD_0":65,"TEXCOORD_1":66,"TEXCOORD_2":67,"TANGENT":68},"indices":69,"material":9},{"attributes":{"POSITION":70,"NORMAL":71,"TEXCOORD_0":90,"TEXCOORD_1":73,"TEXCOORD_2":74},"indices":76,"material":10},{"attributes":{"POSITION":77,"NORMAL":78,"TEXCOORD_0":91,"TEXCOORD_1":80,"TEXCOORD_2":81},"indices":83,"material":11}]}],"accessors":[{"bufferView":0,"componentType":5126,"count":156,"max":[12.399999618530273,-0.014999999664723873,0],"min":[0,-0.15000000596046448,-8.949999809265137],"type":"VEC3"},{"bufferView":1,"componentType":5126,"count":156,"type":"VEC3"},{"bufferView":2,"componentType":5126,"count":156,"type":"VEC2"},{"bufferView":3,"componentType":5126,"count":156,"type":"VEC2"},{"bufferView":4,"componentType":5126,"count":156,"type":"VEC2"},{"bufferView":5,"componentType":5126,"count":156,"type":"VEC4"},{"bufferView":6,"componentType":5123,"count":156,"type":"SCALAR"},{"bufferView":7,"componentType":5126,"count":156,"max":[12.399999618530273,0,0],"min":[0,-0.014999999664723873,-8.949999809265137],"type":"VEC3"},{"bufferView":8,"componentType":5126,"count":156,"type":"VEC3"},{"bufferView":9,"componentType":5126,"count":156,"type":"VEC2"},{"bufferView":10,"componentType":5126,"count":156,"type":"VEC2"},{"bufferView":11,"componentType":5126,"count":156,"type":"VEC2"},{"bufferView":12,"componentType":5126,"count":156,"type":"VEC4"},{"bufferView":13,"componentType":5123,"count":156,"type":"SCALAR"},{"bufferView":14,"componentType":5126,"count":108,"max":[5.75,0.0010000000474974513,-0.30000001192092896],"min":[0.9700000286102295,-0.014000000432133675,-4.400000095367432],"type":"VEC3"},{"bufferView":15,"componentType":5126,"count":108,"type":"VEC3"},{"bufferView":16,"componentType":5126,"count":108,"type":"VEC2"},{"bufferView":17,"componentType":5126,"count":108,"type":"VEC2"},{"bufferView":18,"componentType":5126,"count":108,"type":"VEC2"},{"bufferView":19,"componentType":5126,"count":108,"type":"VEC4"},{"bufferView":20,"componentType":5123,"count":108,"type":"SCALAR"},{"bufferView":21,"componentType":5126,"count":36,"max":[12.100000381469727,0.0010000000474974513,-1.7999999523162842],"min":[10.850000381469727,-0.014000000432133675,-4.099999904632568],"type":"VEC3"},{"bufferView":22,"componentType":5126,"count":36,"type":"VEC3"},{"bufferView":23,"componentType":5126,"count":36,"type":"VEC2"},{"bufferView":24,"componentType":5126,"count":36,"type":"VEC2"},{"bufferView":25,"componentType":5126,"count":36,"type":"VEC2"},{"bufferView":26,"componentType":5126,"count":36,"type":"VEC4"},{"bufferView":27,"componentType":5123,"count":36,"type":"SCALAR"},{"bufferView":28,"componentType":5126,"count":2748,"max":[12.399999618530273,2.75,0],"min":[0,-0.029999999329447746,-9.550000190734863],"type":"VEC3"},{"bufferView":29,"componentType":5126,"count":2748,"type":"VEC3"},{"bufferView":30,"componentType":5126,"count":2748,"type":"VEC2"},{"bufferView":31,"componentType":5126,"count":2748,"type":"VEC2"},{"bufferView":32,"componentType":5126,"count":2748,"type":"VEC2"},{"bufferView":33,"componentType":5126,"count":2748,"type":"VEC4"},{"bufferView":34,"componentType":5123,"count":2748,"type":"SCALAR"},{"bufferView":35,"componentType":5126,"count":1764,"max":[11.449999809265137,2.5,-0.44999998807907104],"min":[1.399999976158142,0,-8.920000076293945],"type":"VEC3"},{"bufferView":36,"componentType":5126,"count":1764,"type":"VEC3"},{"bufferView":37,"componentType":5126,"count":1764,"type":"VEC2"},{"bufferView":38,"componentType":5126,"count":1764,"type":"VEC2"},{"bufferView":39,"componentType":5126,"count":1764,"type":"VEC2"},{"bufferView":40,"componentType":5126,"count":1764,"type":"VEC4"},{"bufferView":41,"componentType":5123,"count":1764,"type":"SCALAR"},{"bufferView":42,"componentType":5126,"count":266,"max":[11.390000343322754,2.059999942779541,-0.5899999737739563],"min":[1.4600000381469727,0.11999999731779099,-8.878999710083008],"type":"VEC3"},{"bufferView":43,"componentType":5126,"count":266,"type":"VEC3"},{"bufferView":44,"componentType":5126,"count":266,"type":"VEC2"},{"bufferView":45,"componentType":5126,"count":266,"type":"VEC2"},{"bufferView":46,"componentType":5126,"count":266,"type":"VEC2"},{"bufferView":47,"componentType":5126,"count":266,"type":"VEC4"},{"bufferView":48,"componentType":5123,"count":396,"type":"SCALAR"},{"bufferView":49,"componentType":5126,"count":48,"max":[4.190000057220459,2.4600000381469727,-2.496000051498413],"min":[2.2100000381469727,1.5399999618530273,-2.503999948501587],"type":"VEC3"},{"bufferView":50,"componentType":5126,"count":48,"type":"VEC3"},{"bufferView":51,"componentType":5126,"count":48,"type":"VEC2"},{"bufferView":52,"componentType":5126,"count":48,"type":"VEC2"},{"bufferView":53,"componentType":5126,"count":48,"type":"VEC2"},{"bufferView":54,"componentType":5126,"count":48,"type":"VEC4"},{"bufferView":55,"componentType":5123,"count":72,"type":"SCALAR"},{"bufferView":56,"componentType":5126,"count":900,"max":[10.350000381469727,2.130000114440918,-1.7424999475479126],"min":[2.0999999046325684,0,-6.430197238922119],"type":"VEC3"},{"bufferView":57,"componentType":5126,"count":900,"type":"VEC3"},{"bufferView":58,"componentType":5126,"count":900,"type":"VEC2"},{"bufferView":59,"componentType":5126,"count":900,"type":"VEC2"},{"bufferView":60,"componentType":5126,"count":900,"type":"VEC2"},{"bufferView":61,"componentType":5126,"count":900,"type":"VEC4"},{"bufferView":62,"componentType":5123,"count":900,"type":"SCALAR"},{"bufferView":63,"componentType":5126,"count":36,"max":[10.700732231140137,2.0899999141693115,-3.4667913913726807],"min":[9.9197416305542,0.012000000104308128,-3.535987138748169],"type":"VEC3"},{"bufferView":64,"componentType":5126,"count":36,"type":"VEC3"},{"bufferView":65,"componentType":5126,"count":36,"type":"VEC2"},{"bufferView":66,"componentType":5126,"count":36,"type":"VEC2"},{"bufferView":67,"componentType":5126,"count":36,"type":"VEC2"},{"bufferView":68,"componentType":5126,"count":36,"type":"VEC4"},{"bufferView":69,"componentType":5123,"count":36,"type":"SCALAR"},{"bufferView":70,"componentType":5126,"count":36,"max":[10.335987091064453,2.0899999141693115,-1.799267053604126],"min":[10.254575729370117,0.012000000104308128,-2.9300436973571777],"type":"VEC3"},{"bufferView":71,"componentType":5126,"count":36,"type":"VEC3"},{"bufferView":72,"componentType":5126,"count":36,"type":"VEC2"},{"bufferView":73,"componentType":5126,"count":36,"type":"VEC2"},{"bufferView":74,"componentType":5126,"count":36,"type":"VEC2"},{"bufferView":75,"componentType":5126,"count":36,"type":"VEC4"},{"bufferView":76,"componentType":5123,"count":36,"type":"SCALAR"},{"bufferView":77,"componentType":5126,"count":72,"max":[4.400000095367432,-0.029999999329447746,0],"min":[0.9700000286102295,-0.15000000596046448,-2.450000047683716],"type":"VEC3"},{"bufferView":78,"componentType":5126,"count":72,"type":"VEC3"},{"bufferView":79,"componentType":5126,"count":72,"type":"VEC2"},{"bufferView":80,"componentType":5126,"count":72,"type":"VEC2"},{"bufferView":81,"componentType":5126,"count":72,"type":"VEC2"},{"bufferView":82,"componentType":5126,"count":72,"type":"VEC4"},{"bufferView":83,"componentType":5123,"count":72,"type":"SCALAR"},{"bufferView":84,"componentType":5126,"count":156,"type":"VEC2"},{"bufferView":85,"componentType":5126,"count":156,"type":"VEC2"},{"bufferView":86,"componentType":5126,"count":108,"type":"VEC2"},{"bufferView":87,"componentType":5126,"count":36,"type":"VEC2"},{"bufferView":88,"componentType":5126,"count":2748,"type":"VEC2"},{"bufferView":89,"componentType":5126,"count":900,"type":"VEC2"},{"bufferView":90,"componentType":5126,"count":36,"type":"VEC2"},{"bufferView":91,"componentType":5126,"count":72,"type":"VEC2"}],"bufferViews":[{"buffer":0,"byteLength":1872,"byteOffset":0,"target":34962},{"buffer":0,"byteLength":1872,"byteOffset":1872,"target":34962},{"buffer":0,"byteLength":1248,"byteOffset":3744,"target":34962},{"buffer":0,"byteLength":1248,"byteOffset":4992,"target":34962},{"buffer":0,"byteLength":1248,"byteOffset":6240,"target":34962},{"buffer":0,"byteLength":2496,"byteOffset":7488,"target":34962},{"buffer":0,"byteLength":312,"byteOffset":9984,"target":34963},{"buffer":0,"byteLength":1872,"byteOffset":10296,"target":34962},{"buffer":0,"byteLength":1872,"byteOffset":12168,"target":34962},{"buffer":0,"byteLength":1248,"byteOffset":14040,"target":34962},{"buffer":0,"byteLength":1248,"byteOffset":15288,"target":34962},{"buffer":0,"byteLength":1248,"byteOffset":16536,"target":34962},{"buffer":0,"byteLength":2496,"byteOffset":17784,"target":34962},{"buffer":0,"byteLength":312,"byteOffset":20280,"target":34963},{"buffer":0,"byteLength":1296,"byteOffset":20592,"target":34962},{"buffer":0,"byteLength":1296,"byteOffset":21888,"target":34962},{"buffer":0,"byteLength":864,"byteOffset":23184,"target":34962},{"buffer":0,"byteLength":864,"byteOffset":24048,"target":34962},{"buffer":0,"byteLength":864,"byteOffset":24912,"target":34962},{"buffer":0,"byteLength":1728,"byteOffset":25776,"target":34962},{"buffer":0,"byteLength":216,"byteOffset":27504,"target":34963},{"buffer":0,"byteLength":432,"byteOffset":27720,"target":34962},{"buffer":0,"byteLength":432,"byteOffset":28152,"target":34962},{"buffer":0,"byteLength":288,"byteOffset":28584,"target":34962},{"buffer":0,"byteLength":288,"byteOffset":28872,"target":34962},{"buffer":0,"byteLength":288,"byteOffset":29160,"target":34962},{"buffer":0,"byteLength":576,"byteOffset":29448,"target":34962},{"buffer":0,"byteLength":72,"byteOffset":30024,"target":34963},{"buffer":0,"byteLength":32976,"byteOffset":30096,"target":34962},{"buffer":0,"byteLength":32976,"byteOffset":63072,"target":34962},{"buffer":0,"byteLength":21984,"byteOffset":96048,"target":34962},{"buffer":0,"byteLength":21984,"byteOffset":118032,"target":34962},{"buffer":0,"byteLength":21984,"byteOffset":140016,"target":34962},{"buffer":0,"byteLength":43968,"byteOffset":162000,"target":34962},{"buffer":0,"byteLength":5496,"byteOffset":205968,"target":34963},{"buffer":0,"byteLength":21168,"byteOffset":211464,"target":34962},{"buffer":0,"byteLength":21168,"byteOffset":232632,"target":34962},{"buffer":0,"byteLength":14112,"byteOffset":253800,"target":34962},{"buffer":0,"byteLength":14112,"byteOffset":267912,"target":34962},{"buffer":0,"byteLength":14112,"byteOffset":282024,"target":34962},{"buffer":0,"byteLength":28224,"byteOffset":296136,"target":34962},{"buffer":0,"byteLength":3528,"byteOffset":324360,"target":34963},{"buffer":0,"byteLength":3192,"byteOffset":327888,"target":34962},{"buffer":0,"byteLength":3192,"byteOffset":331080,"target":34962},{"buffer":0,"byteLength":2128,"byteOffset":334272,"target":34962},{"buffer":0,"byteLength":2128,"byteOffset":336400,"target":34962},{"buffer":0,"byteLength":2128,"byteOffset":338528,"target":34962},{"buffer":0,"byteLength":4256,"byteOffset":340656,"target":34962},{"buffer":0,"byteLength":792,"byteOffset":344912,"target":34963},{"buffer":0,"byteLength":576,"byteOffset":345704,"target":34962},{"buffer":0,"byteLength":576,"byteOffset":346280,"target":34962},{"buffer":0,"byteLength":384,"byteOffset":346856,"target":34962},{"buffer":0,"byteLength":384,"byteOffset":347240,"target":34962},{"buffer":0,"byteLength":384,"byteOffset":347624,"target":34962},{"buffer":0,"byteLength":768,"byteOffset":348008,"target":34962},{"buffer":0,"byteLength":144,"byteOffset":348776,"target":34963},{"buffer":0,"byteLength":10800,"byteOffset":348920,"target":34962},{"buffer":0,"byteLength":10800,"byteOffset":359720,"target":34962},{"buffer":0,"byteLength":7200,"byteOffset":370520,"target":34962},{"buffer":0,"byteLength":7200,"byteOffset":377720,"target":34962},{"buffer":0,"byteLength":7200,"byteOffset":384920,"target":34962},{"buffer":0,"byteLength":14400,"byteOffset":392120,"target":34962},{"buffer":0,"byteLength":1800,"byteOffset":406520,"target":34963},{"buffer":0,"byteLength":432,"byteOffset":408320,"target":34962},{"buffer":0,"byteLength":432,"byteOffset":408752,"target":34962},{"buffer":0,"byteLength":288,"byteOffset":409184,"target":34962},{"buffer":0,"byteLength":288,"byteOffset":409472,"target":34962},{"buffer":0,"byteLength":288,"byteOffset":409760,"target":34962},{"buffer":0,"byteLength":576,"byteOffset":410048,"target":34962},{"buffer":0,"byteLength":72,"byteOffset":410624,"target":34963},{"buffer":0,"byteLength":432,"byteOffset":410696,"target":34962},{"buffer":0,"byteLength":432,"byteOffset":411128,"target":34962},{"buffer":0,"byteLength":288,"byteOffset":411560,"target":34962},{"buffer":0,"byteLength":288,"byteOffset":411848,"target":34962},{"buffer":0,"byteLength":288,"byteOffset":412136,"target":34962},{"buffer":0,"byteLength":576,"byteOffset":412424,"target":34962},{"buffer":0,"byteLength":72,"byteOffset":413000,"target":34963},{"buffer":0,"byteLength":864,"byteOffset":413072,"target":34962},{"buffer":0,"byteLength":864,"byteOffset":413936,"target":34962},{"buffer":0,"byteLength":576,"byteOffset":414800,"target":34962},{"buffer":0,"byteLength":576,"byteOffset":415376,"target":34962},{"buffer":0,"byteLength":576,"byteOffset":415952,"target":34962},{"buffer":0,"byteLength":1152,"byteOffset":416528,"target":34962},{"buffer":0,"byteLength":144,"byteOffset":417680,"target":34963},{"buffer":1,"byteOffset":0,"byteLength":1248},{"buffer":1,"byteOffset":1248,"byteLength":1248},{"buffer":1,"byteOffset":2496,"byteLength":864},{"buffer":1,"byteOffset":3360,"byteLength":288},{"buffer":1,"byteOffset":3648,"byteLength":21984},{"buffer":1,"byteOffset":25632,"byteLength":7200},{"buffer":1,"byteOffset":32832,"byteLength":288},{"buffer":1,"byteOffset":33120,"byteLength":576}],"buffers":[{"byteLength":417824,"uri":"../baked/Apartment.bin"},{"uri":"materials.bin","byteLength":33696}],"textures":[{"sampler":0,"source":0},{"sampler":0,"source":0},{"sampler":0,"source":1},{"sampler":0,"source":0},{"sampler":0,"source":2},{"sampler":0,"source":3},{"sampler":0,"source":3},{"sampler":0,"source":0},{"source":4,"sampler":0},{"source":5,"sampler":0},{"source":6,"sampler":0},{"source":7,"sampler":0},{"source":8,"sampler":0},{"source":9,"sampler":0},{"source":10,"sampler":0},{"source":11,"sampler":0},{"source":12,"sampler":0},{"source":13,"sampler":0},{"source":14,"sampler":0},{"source":15,"sampler":0}],"images":[{"name":"greysand","uri":"../baked/source-image-0.png"},{"name":"texture_13","uri":"../baked/source-image-1.png"},{"name":"texture_01","uri":"../baked/source-image-2.png"},{"name":"wood","uri":"../baked/source-image-3.png"},{"uri":"textures/clean-beige_wall_001-color.jpg"},{"uri":"textures/clean-beige_wall_001-normal.jpg"},{"uri":"textures/clean-beige_wall_001-arm.jpg"},{"uri":"textures/clean-interior_tiles-color.jpg"},{"uri":"textures/clean-interior_tiles-normal.jpg"},{"uri":"textures/clean-interior_tiles-arm.jpg"},{"uri":"textures/clean-romantic_veneer-color.jpg"},{"uri":"textures/clean-romantic_veneer-normal.jpg"},{"uri":"textures/clean-romantic_veneer-arm.jpg"},{"uri":"textures/clean-smooth_concrete_floor-color.jpg"},{"uri":"textures/clean-smooth_concrete_floor-normal.jpg"},{"uri":"textures/clean-smooth_concrete_floor-arm.jpg"}],"samplers":[{"magFilter":9729,"minFilter":9987}]}
